<?xml version="1.0" encoding="UTF-8"?>
<svg width="16px" height="16px" xmlns="http://www.w3.org/2000/svg" viewBox="0 0 16 16" class="">
  <path fill="#c5a257" d="M13.552 8.731L15 8l-1.448-.731 1.21-1.081-1.589-.331.888-1.357-1.52.086c.002-.002.003-.004.005-.005.576-.503 1.008-.863 2.315-1.907l-2.363-.731c-.425.388-.759.702-1.055.996l.057-1.001-1.356.889-.333-1.589-1.08 1.209L8 1l-.731 1.448-1.08-1.209-.333 1.588L4.5 1.938l.091 1.62L3.05 3.05l.508 1.541L1.939 4.5l.889 1.357-1.59.331 1.21 1.081L1 8l1.448.731-1.21 1.081 1.589.331-.888 1.357 1.619-.091-.508 1.541 1.541-.507-.091 1.619 1.356-.889.332 1.588 1.08-1.209L8 15l.731-1.448 1.08 1.209.332-1.588 1.356.889-.091-1.62 1.541.507-.508-1.541 1.619.091-.889-1.357 1.589-.331-1.208-1.08zM8 12.5c-2.485 0-4.5-2.015-4.5-4.5S5.515 3.5 8 3.5c.858 0 1.652.253 2.335.67-.133.165-.268.336-.415.53-.828 1.068-1.295 1.8-2.243 3.479L6.37 6.248l-1.187.719 2.699 3.958c.971-1.679 1.427-2.435 1.931-3.19.585-.873 1.191-1.628 1.862-2.32.515.733.825 1.621.825 2.585 0 2.485-2.016 4.5-4.5 4.5z">
  </path>
</svg>
